<?xml version="1.0" encoding="utf-8"?>
<svg xmlns="http://www.w3.org/2000/svg" viewBox="0 0 50 50" width="500" height="500">
  <path d="M16 3C8.8324839 3 3 8.8324839 3 16L3 34C3 41.167516 8.8324839 47 16 47L34 47C41.167516 47 47 41.167516 47 34L47 16C47 8.8324839 41.167516 3 34 3L16 3 z M 16 5L34 5C40.086484 5 45 9.9135161 45 16L45 34C45 40.086484 40.086484 45 34 45L16 45C9.9135161 45 5 40.086484 5 34L5 16C5 9.9135161 9.9135161 5 16 5 z M 37 11 A 2 2 0 0 0 35 13 A 2 2 0 0 0 37 15 A 2 2 0 0 0 39 13 A 2 2 0 0 0 37 11 z M 25 14C18.936712 14 14 18.936712 14 25C14 31.063288 18.936712 36 25 36C31.063288 36 36 31.063288 36 25C36 18.936712 31.063288 14 25 14 z M 25 16C29.982407 16 34 20.017593 34 25C34 29.982407 29.982407 34 25 34C20.017593 34 16 29.982407 16 25C16 20.017593 20.017593 16 25 16 z" fill="#FFFFFF" />
</svg>