<?xml version="1.0" encoding="utf-8"?>
<svg xmlns="http://www.w3.org/2000/svg" viewBox="0 0 50 50" width="500" height="500">
  <path d="M48.90625 0C48.773438 0.015625 48.648438 0.0585938 48.53125 0.125L0.53125 26.125C0.183594 26.3125 -0.0195313 26.6875 0.0117188 27.082031C0.046875 27.476563 0.3125 27.8125 0.6875 27.9375L14.3125 32.40625L13 45.90625C12.945313 46.34375 13.1875 46.765625 13.59375 46.941406C14 47.117188 14.472656 47 14.75 46.65625L23.34375 36.9375L36.3125 49.71875C36.566406 49.96875 36.933594 50.0625 37.277344 49.964844C37.621094 49.867188 37.882813 49.597656 37.96875 49.25L49.96875 1.25C50.058594 0.933594 49.980469 0.59375 49.769531 0.34375C49.554688 0.09375 49.234375 -0.0351563 48.90625 0 Z M 47.46875 2.9375L36.4375 47.0625L24.59375 35.375L41.8125 11.59375C42.191406 11.195313 42.179688 10.566406 41.78125 10.1875C41.382813 9.808594 40.753906 9.820313 40.375 10.21875L15.21875 30.59375L3.5 26.78125 Z M 35.78125 16.5L22.65625 34.71875C22.621094 34.757813 22.589844 34.800781 22.5625 34.84375L22.5 34.90625C22.476563 34.9375 22.457031 34.96875 22.4375 35L15.28125 43.03125L16.34375 32.21875Z" fill="#FFFFFF" />
</svg>